<?xml version="1.0" encoding="utf-8"?>
<!-- Generator: Adobe Illustrator 27.3.1, SVG Export Plug-In . SVG Version: 6.00 Build 0)  -->
<svg version="1.1" id="Слой_1" xmlns="http://www.w3.org/2000/svg" xmlns:xlink="http://www.w3.org/1999/xlink" x="0px" y="0px"
	 viewBox="0 0 1024 923" style="enable-background:new 0 0 1024 923;" xml:space="preserve">
<style type="text/css">
	.st0{display:none;}
	.st1{display:inline;fill:#FFFFFF;}
	.st2{display:inline;fill:#64DD7E;}
	.st3{fill:#64DD7E;}
	.st4{fill:#FFFFFF;}
</style>
<g>
	<path d="M169.39,846.5c-48.46,0-87.89-39.43-87.89-87.89V151.39c0-48.46,39.43-87.89,87.89-87.89h675.22
		c48.46,0,87.89,39.43,87.89,87.89v607.22c0,48.46-39.43,87.89-87.89,87.89H169.39z"/>
	<path d="M844.61,64C892.8,64,932,103.2,932,151.39v607.22c0,48.19-39.2,87.39-87.39,87.39H169.39C121.2,846,82,806.8,82,758.61
		V151.39C82,103.2,121.2,64,169.39,64H844.61 M844.61,63H169.39C120.57,63,81,102.57,81,151.39v607.22
		c0,48.82,39.57,88.39,88.39,88.39h675.22c48.82,0,88.39-39.57,88.39-88.39V151.39C933,102.57,893.43,63,844.61,63L844.61,63z"/>
</g>
<g>
	<g>
		<g class="st0">
			<path class="st1" d="M732.03,551.14c0.05,0,0.1,6.75,0.1,15v68c0,8.25-4.77,19.77-10.61,25.61l-27.08,27.08
				c-5.83,5.83-17.36,10.61-25.61,10.61h-313c-8.25,0-19.77-4.77-25.61-10.61l-27.09-27.09c-5.83-5.83-10.61-10.66-10.61-10.72
				c0-0.06,4.77,4.66,10.61,10.49l26.88,26.88c5.83,5.83,17.36,10.61,25.61,10.61h313c8.25,0,19.77-4.77,25.61-10.61l27.09-27.09
				c5.83-5.83,10.61-17.36,10.61-25.61v-67.56C731.93,557.89,731.97,551.14,732.03,551.14z"/>
		</g>
		<g class="st0">
			<path class="st1" d="M619.63,305c8.25,0,15,0.1,15,0.22s-6.75,0.22-15,0.22H405.54c-8.25,0-15,6.75-15,15V584
				c0,8.25-0.05,15-0.1,15s-0.1-6.75-0.1-15V320c0-8.25,6.75-15,15-15H619.63z"/>
		</g>
		<g class="st0">
			<path class="st1" d="M732.03,257.04c0.05,0.06,0.1,6.86,0.1,15.11v67.3c0,8.25-6.75,15-15,15h-67.29c-8.25,0-15-0.1-15-0.22
				s6.75-0.22,15-0.22h67.09c8.25,0,15-6.75,15-15v-67.07C731.93,263.68,731.97,256.98,732.03,257.04z"/>
		</g>
		<g class="st0">
			<path class="st2" d="M634.73,305.44c0.06,0,0.11,6.75,0.11,15V339c0,8.25-0.05,15-0.11,15c-0.06,0-0.1-6.75-0.1-15v-18.56
				C634.63,312.19,634.68,305.44,634.73,305.44z"/>
		</g>
		<g class="st0">
			<path class="st2" d="M721.48,245.94c5.75,5.92,10.45,10.81,10.45,10.87s-4.7-4.73-10.45-10.64l-27.18-27.97
				c-5.75-5.92-17.2-10.76-25.45-10.76h-313c-8.25,0-19.7,4.84-25.45,10.76l-27.39,28.19c-5.75,5.92-10.45,17.51-10.45,25.76v361.77
				c0,8.25-0.05,14.95-0.1,14.9s-0.1-6.85-0.1-15.1v-362c0-8.25,4.7-19.84,10.45-25.76l27.39-28.19
				c5.75-5.92,17.2-10.76,25.45-10.76h313c8.25,0,19.7,4.84,25.45,10.76L721.48,245.94z"/>
		</g>
		<g>
			<path class="st3" d="M716.93,443.3c8.25,0,15,6.75,15,15v104.84c0,8.25-6.75,15-15,15h-67.09c-8.25,0-15,6.75-15,15v18.3
				c0,8.25-6.75,15-15,15h-214.3c-8.25,0-15-0.1-15-0.22c0-0.12,6.75-0.22,15-0.22h214.09c8.25,0,15-6.75,15-15v-54.7
				c0-8.25-6.75-15-15-15h-93.2c-8.25,0-15-6.75-15-15v-68c0-8.25,6.75-15,15-15H716.93z"/>
		</g>
		<g>
			<path class="st4" d="M649.84,354c-8.25,0-15-6.75-15-15v-18.56c0-8.25-0.05-15-0.11-15c-0.06,0-0.1-0.1-0.1-0.22
				s-6.75-0.22-15-0.22h-214.3c-8.25,0-15,6.75-15,15v264c0,8.25,0.05,15,0.1,15s0.1,0.1,0.1,0.22c0,0.12,6.75,0.22,15,0.22h214.3
				c8.25,0,15-6.75,15-15v-18.3c0-8.25,6.75-15,15-15h67.09c8.25,0,15,6.75,15,15v67.56c0,8.25-4.77,19.77-10.61,25.61l-27.09,27.09
				c-5.83,5.83-17.36,10.61-25.61,10.61h-313c-8.25,0-19.77-4.77-25.61-10.61l-26.88-26.88c-5.83-5.83-10.61-17.36-10.61-25.61
				V272.14c0-8.25,4.7-19.84,10.45-25.76l27.39-28.19c5.75-5.92,17.2-10.76,25.45-10.76h313c8.25,0,19.7,4.84,25.45,10.76
				l27.18,27.97c5.75,5.92,10.45,17.51,10.45,25.76V339c0,8.25-6.75,15-15,15H649.84z"/>
		</g>
	</g>
</g>
</svg>
